<?xml version="1.0" encoding="utf-8"?>
<!-- Generator: Adobe Illustrator 19.1.0, SVG Export Plug-In . SVG Version: 6.00 Build 0)  -->
<svg version="1.1" xmlns="http://www.w3.org/2000/svg" xmlns:xlink="http://www.w3.org/1999/xlink" x="0px" y="0px"
	 viewBox="0 0 800 450" style="enable-background:new 0 0 800 450;" xml:space="preserve">
<style type="text/css">
	.st0{fill:#151515;}
	.st1{fill:#FF4240;}
</style>
<g id="Layer_2">
	<path class="st0" d="M174.1,170v-0.2c0-22.5-18.2-40.7-40.7-40.7c-16.9,0-31.4,10.3-37.6,25c-1-0.1-2.1-0.2-3.1-0.2
		c-16.4,0-29.6,13.3-29.6,29.6c0,2.8,0.4,5.6,1.2,8.2h34.9h22.1h28.1h18.4h25.4C193.1,180.6,184.9,171.4,174.1,170z"/>
	<path class="st0" d="M298.9,124.7v-0.2c0-16.6,13.5-30.1,30.1-30.1c12.5,0,23.2,7.6,27.8,18.5c0.8-0.1,1.5-0.1,2.3-0.1
		c12.1,0,21.9,9.8,21.9,21.9c0,2.1-0.3,4.1-0.8,6h-25.8H338h-20.8h-13.6h-18.8C284.9,132.6,291,125.8,298.9,124.7z"/>
	<path class="st0" d="M504.3,161.5v-0.2c0-16.6,13.5-30.1,30.1-30.1c12.5,0,23.2,7.6,27.8,18.5c0.8-0.1,1.5-0.1,2.3-0.1
		c12.1,0,21.9,9.8,21.9,21.9c0,2.1-0.3,4.1-0.9,6h-25.8h-16.3h-20.8H509h-18.8C490.3,169.4,496.4,162.6,504.3,161.5z"/>
	<circle class="st1" cx="584.2" cy="154.5" r="45.9"/>
	<path class="st0" d="M695.3,190.5v-0.2c0-22.5-18.2-40.7-40.7-40.7c-16.9,0-31.4,10.3-37.6,25c-1-0.1-2.1-0.2-3.1-0.2
		c-16.4,0-29.6,13.3-29.6,29.6c0,2.8,0.4,5.6,1.1,8.2h34.9h22.1h28.1h18.4h25.4C714.2,201.1,706,191.9,695.3,190.5z"/>
</g>
<g id="Layer_1">
	<g>
		<path class="st0" d="M797.9,392.3v-9.8h-6.5v-8.8h-7v8.8h-5v-13.2h-12v6.7h-4.5v16.2h-3.5v-29.2h-12v29.2h-2.5v-33.2h-13.5v-43.7
			H725v-5h-3.3h-1.9h-3.1v5h-2.1h-2.1v-5h-3.1h-1.9h-3.3v5H698v43.7h-13.5v33.2h-2.5v-29.2h-4.6v-83.6h-6v-4h-6.7l-1.3-20.7
			l-1.3,20.7h-6.7v4h-2.4l-0.6-9.6l-0.6,9.6h-2.4v103.2h-4.4v-8.8h-0.7v-46.9h-3v-7.8h-5.8v-33.9h-3.2v-6.8h-2.3v-5h-5.4v-8.2h-9.1
			v-15.4h-2.7v-4.1h-5.4v-9.5h-1.5c-0.4-3.5-3.4-6.2-7.1-6.2c-3.6,0-6.6,2.7-7.1,6.2H590v9.5h-2.7v73.3h-2.6v7.8h-6v40.8H577V366
			h0.6v-23.1h-6.8v-36.7V304v-9.1H569v5.2h-5v3.9h-17.7v19.8h-2.5v5.5h-4.5v20.1h-3.8v3.7h-0.3v-24.6l1-4.1h0.7v-2.3h-2.5v-8.5h0.8
			v-3.7H534v-4.4h-0.6v-1.2h-0.6v-17.9h-0.5h-0.6v17.9h-0.6v1.2h-0.6v4.4h-1.3v3.7h0.8v8.5h-2.5v2.3h0.7l1,4.1v30.6h-0.5v-18.3v-3
			h-7.8v3h-7.8v13h-11v-3.2h-1.3v-19.6h-2.7l-1.3-21.3l-1.3,21.3h-4.8l-1.2-26.7l-1.2,26.7H484v19.6h-2.3v-1.3h-5.5v-4h-3.5v-4.5h-7
			v12.3h-2.8V342H460v-71.3l-19.4-34.9l0.6-0.6l-0.9-1.3l-0.1-3l0.7-0.9l-0.8-0.7l-0.4-14.2l-0.4,14.2l-0.8,1l0.7,0.6l-0.1,3.1
			l-0.9,0.9l0.6,0.9l-11,36.1v41l-24,7.5l-0.9,20.5h-1.6V336h-20.6v44.6h-3V378h-2.5v-15h-10v-9h-13.1v-68.5h-21.5V326l-0.7,6.3h-2
			V230h-2.3v-5.8h-3.8v-4.6h-1.6v-2.6h-7.5l-1.1-22.7l-1.1,22.7h-7.5v2.6h-1.6v4.6h-3.8v5.8h-2.3v148h-14v-45.7h-4v-34.1h-3.5v-3
			h-3.5v-25.6h-1.5v-3.5h-2.6h-2.7h-3H258h-2.6v3.5h-2v25.6h-3v37.1h-3.1c0.1-0.5,0-1.1-0.2-1.7c-0.7-1.7-2.6-2.5-4.3-1.8
			c-1.7,0.7-2.5,2.6-1.8,4.3c0.7,1.7,2.6,2.5,4.3,1.8c0.7-0.3,1.2-0.8,1.5-1.3v4.8c-0.2,0-0.3,0-0.5,0c-1.8,0.4-2.9,2.1-2.6,3.9
			c0.3,1.5,1.6,2.6,3,2.6v3.5c-1.2,0.5-2.1,1.7-2.1,3.1c0,1.4,0.9,2.6,2.1,3.1v4.4c-1.5,0-2.9,1-3.2,2.6c-0.4,1.8,0.7,3.5,2.5,3.9
			c0.2,0.1,0.5,0.1,0.7,0.1v5c-0.3-0.8-0.9-1.5-1.8-1.8c-1.7-0.7-3.6,0-4.3,1.7c-0.7,1.7,0,3.6,1.7,4.3c1.7,0.7,3.6,0,4.3-1.7
			c0-0.1,0-0.1,0.1-0.2v2.6h-8v1c-0.8,0.2-1.6,0.6-2.1,1.4c-0.6,0.9-0.7,1.9-0.4,2.8h-3c6.4-8,10.3-18.1,10.3-29.1
			c0-25.5-20.8-46.3-46.3-46.3c-25.5,0-46.3,20.8-46.3,46.3c0,2.5,0.2,5,0.6,7.4h-1.8c-0.1-0.1-0.2-0.2-0.3-0.3
			c-1.3-0.9-2.9-0.7-4,0.3H135v-47.6h-2.1v-5h-3.1l-1.1-17.8l-0.8,17.8h-3.3v5h-6.1V355h-13.6v33.2h-2.5V359h-12v29.2h-3.5v-16.2
			h-4.5v-6.7h-12v13.2h-5v-8.8h-7v8.8h-3V359H27.9v4.8h-8.3v24.5l-19.1,4.1H0v101.3h800V392.3H797.9z M197.6,352.8l2.5,6h-2.5V352.8
			z M204.7,343.9l-6.6,6.6l6.6-16.1V343.9z M209,323.8l0.2-0.4v0.4H209z M177.4,371.9l11-11v11H177.4z M200.7,358.8l-2.6-6.2
			l4.1,4.1v2.1H200.7z M198.4,352.2l3.7,1.5v2.2L198.4,352.2z M198.7,351.8h3.5v1.4L198.7,351.8z M198.6,351.3l3.5-1.5v1.5H198.6z
			 M203.1,349.4l1.5-0.6v0.6H203.1z M198.5,350.8l6.2-6.2v3.6L198.5,350.8z M197.1,358.8h-2.5l2.5-6V358.8z M194.1,358.8h-3.7
			l6.2-6.2L194.1,358.8z M189.7,358.8h-1.4v1.4l-11.3,11.3v-8.5h-6.3l25.6-10.7L189.7,358.8z M229.8,380.6v-15.5l8,3.3
			c-1.9,4.5-4.5,8.6-7.7,12.2H229.8z M237.9,367.9l-8.2-3.4v-12.8h11.4C241.1,357.5,240,362.9,237.9,367.9z M229.8,351.3v-1.9h-2.5
			v-10.1l10.6-4.4c2.1,5.1,3.3,10.6,3.3,16.4H229.8z M227.3,338.8v-15h-1.8l3-3c3.9,3.9,7,8.5,9.2,13.6L227.3,338.8z M224.8,323.8
			h-2v-5.5h-11.5l2.9-7.1c5.2,2.2,9.9,5.4,13.9,9.3L224.8,323.8z M210.7,318.3h-1.6v3.8l-0.7,1.7h-3.8v9.3l-7,17.2v-42.5
			c5.7,0,11.1,1.2,16.1,3.2L210.7,318.3z M197.1,350.3l-16.4-39.2c5.1-2.1,10.6-3.3,16.4-3.3V350.3z M180.3,311.3l16.4,39.2l-30-30
			C170.5,316.6,175.1,313.4,180.3,311.3z M166.3,320.8l30,30L157,334.7C159.2,329.5,162.3,324.8,166.3,320.8z M156.8,335.2
			l39.3,16.1h-42.5C153.7,345.6,154.8,340.1,156.8,335.2z M196.1,351.8l-26.7,11.2h-5.5v-4h-9.7c-0.4-2.3-0.6-4.7-0.6-7.2H196.1z
			 M151.6,351.5c0-25.3,20.5-45.8,45.8-45.8s45.8,20.5,45.8,45.8c0,11-3.9,21.2-10.5,29.1h-2c6.8-7.8,10.9-18,10.9-29.1
			c0-24.4-19.9-44.3-44.3-44.3c-24.4,0-44.3,19.9-44.3,44.3c0,2.5,0.2,5,0.6,7.4h-1.6C151.8,356.5,151.6,354.1,151.6,351.5z"/>
		<path class="st0" d="M197.4,304.2c1.8,0,3.3-1.5,3.3-3.3s-1.5-3.3-3.3-3.3c-1.8,0-3.3,1.5-3.3,3.3S195.6,304.2,197.4,304.2z"/>
		<path class="st0" d="M149.1,353.9c1.3-1.3,1.3-3.4,0-4.6c-1.3-1.3-3.4-1.3-4.6,0c-1.3,1.3-1.3,3.4,0,4.6
			C145.7,355.1,147.8,355.1,149.1,353.9z"/>
		<path class="st0" d="M161.6,319c1.8,0,3.3-1.5,3.3-3.3c0-1.8-1.5-3.3-3.3-3.3c-1.8,0-3.3,1.5-3.3,3.3
			C158.3,317.6,159.8,319,161.6,319z"/>
		<path class="st0" d="M233.2,319c1.8,0,3.3-1.5,3.3-3.3c0-1.8-1.5-3.3-3.3-3.3c-1.8,0-3.3,1.5-3.3,3.3
			C229.9,317.6,231.3,319,233.2,319z"/>
		<path class="st0" d="M218,307.8c1.7-0.7,2.5-2.6,1.8-4.3c-0.7-1.7-2.6-2.5-4.3-1.8c-1.7,0.7-2.5,2.6-1.8,4.3
			C214.4,307.7,216.3,308.5,218,307.8z"/>
		<path class="st0" d="M176,308.2c1.7,0.7,3.6-0.2,4.3-1.9c0.7-1.7-0.2-3.6-1.8-4.3c-1.7-0.7-3.6,0.2-4.3,1.9
			C173.5,305.6,174.3,307.5,176,308.2z"/>
		<path class="st0" d="M152.2,334.4c1.7-0.7,2.5-2.6,1.8-4.3c-0.7-1.7-2.6-2.5-4.3-1.9c-1.7,0.7-2.5,2.6-1.9,4.3
			C148.6,334.2,150.5,335,152.2,334.4z"/>
		<path class="st0" d="M188.2,305.1c1.8-0.4,2.9-2.1,2.6-3.9c-0.4-1.8-2.1-2.9-3.9-2.6c-1.8,0.4-2.9,2.1-2.6,3.9
			C184.6,304.3,186.4,305.5,188.2,305.1z"/>
		<path class="st0" d="M156,326.6c1.8-0.4,2.9-2.1,2.6-3.9c-0.4-1.8-2.1-2.9-3.9-2.6c-1.8,0.4-2.9,2.1-2.6,3.9
			C152.4,325.8,154.2,327,156,326.6z"/>
		<path class="st0" d="M226.1,312.7c1.8-0.4,2.9-2.1,2.6-3.9c-0.4-1.8-2.1-2.9-3.9-2.6c-1.8,0.4-2.9,2.1-2.6,3.9
			C222.6,311.9,224.4,313,226.1,312.7z"/>
		<path class="st0" d="M209.1,304.6c1.5-1,1.9-3,0.9-4.6c-1-1.5-3-1.9-4.6-0.9c-1.5,1-1.9,3-0.9,4.6
			C205.6,305.2,207.6,305.7,209.1,304.6z"/>
		<path class="st0" d="M168,313.2c1.8,0.3,3.5-0.9,3.8-2.6c0.3-1.8-0.9-3.5-2.6-3.8c-1.8-0.3-3.5,0.9-3.8,2.6
			C165,311.2,166.2,312.9,168,313.2z"/>
		<path class="st0" d="M149.7,343.5c1.5-1,2-3,1-4.5c-1-1.5-3-2-4.5-1c-1.5,1-2,3-1,4.5C146.2,344.1,148.2,344.5,149.7,343.5z"/>
		<path class="st0" d="M236.6,325.1c1,1.5,3.1,1.9,4.6,0.9c1.5-1,1.9-3.1,0.9-4.6c-1-1.5-3.1-1.9-4.6-0.9
			C236,321.5,235.6,323.6,236.6,325.1z"/>
		<path class="st0" d="M533.3,285.5c0-0.5-0.4-0.9-1-0.9c-0.5,0-1,0.4-1,0.9c0,0.5,0.4,0.9,1,0.9C532.9,286.4,533.3,286,533.3,285.5
			z"/>
		<path class="st0" d="M448.9,196.3c1.5,0.7,3,1.5,4.3,2.5c1.2,0.9,1.2,1,0,2c-0.2,0.2-0.5,0.4-0.4,0.8c0.2,0.8,0.4,1.6,0.9,2.2
			c0.2,0.2,0.5,0.3,0.8,0.5c0.4-1.1,0.3-2.3,1.2-3c0.2,0.1,0.3,0.2,0.4,0.4c0.8,1.2,1.7,2.4,2.5,3.6c0.2,0.2,0.3,0.5,0.5,0.7
			c0.1,0.1,0.4,0.2,0.5,0.1c0.2-0.1,0.2-0.4,0.3-0.6c0-0.1,0-0.3,0-0.4c-0.3-1.6-0.7-3.2-1-4.7c-0.1-0.7-0.4-1.2-1-1.5
			c-0.9-0.5-1.2-1.4-1.2-2.6c0-0.2,0-0.5-0.1-0.7c-0.1,0-0.2,0-0.3,0c-0.1,0-0.2,0.1-0.3,0.2c-0.7,0.7-0.7,0.7-1.4,0
			c-0.3-0.3-0.7-0.8-1-0.9c-1.8-0.7-3.6-0.6-5.5-0.5c-0.2,0-0.5,0.2-0.5,0.4c0,0.3,0.1,0.6,0.3,0.8
			C448.2,195.9,448.5,196.1,448.9,196.3z"/>
		<path class="st0" d="M407.3,210.1c0.2,0,0.5-0.1,0.6-0.3c0.5-0.7,1.2-0.9,1.9-1.4c0.7-0.5,1.3-0.3,2,0.1c0.6,0.4,0.8,1,0.6,1.7
			c-0.1,0.4-0.3,0.8-0.4,1.3c0,0.3,0,0.7,0.1,0.9c0.4,0.6,0.9,0.8,1.6,0.7c0.6-0.1,0.7-0.4,0.7-1.1c0-0.3-0.1-0.6-0.1-0.9
			c-0.1-1.1,0.1-1.6,1.3-1.3c0.3,0.1,0.7,0.4,0.9,0.8c0.4,0.8,0.6,1.7,0.9,2.6c0.1,0.4,0.3,0.9,0.5,1.2c0.2,0.3,0.6,0.2,0.6-0.3
			c0-0.1,0-0.3,0-0.4c-0.1-1.9-0.4-3.9-1-5.7c-0.1-0.2-0.2-0.4-0.3-0.7c-0.3-0.6-0.6-0.8-1.2-0.8c-1.4,0-1.6-0.2-2.1-1.8
			c0-0.1-0.1-0.1-0.2-0.2c-0.1,0-0.2,0-0.3,0.1c-0.1,0.1-0.2,0.3-0.3,0.5c-0.4,0.6-0.5,0.6-1,0.2c-0.1-0.1-0.2-0.2-0.4-0.3
			c-0.5-0.5-1.1-0.6-1.7-0.2c-0.7,0.6-1.4,1.2-2,1.9c-0.6,0.7-1,1.4-1.5,2.2C406.3,209.5,406.7,210.1,407.3,210.1z"/>
		<path class="st0" d="M417.1,237.3c-0.7-1.1-1.5-1.8-2.7-2c-1.6-0.2-2.6-0.3-3.3,0.2c0.4,0.3,0.6,0.5,1,0.7
			c1.3,0.9,2.5,1.7,3.8,2.6c0.2,0.2,0.4,0.4,0.6,0.6c0.3,0.2,0.4,0.5,0.5,0.9c0.2,0.6-0.1,1.1-0.2,1.6c-0.2,0.8-0.1,1,0.5,1.2
			c0.4,0.2,0.9,0.2,1.3,0.3c0.4,0,0.5-0.2,0.4-0.7c-0.1-0.4-0.2-0.8-0.2-1.2c0-0.5,0.1-1.1,0.6-1.3c0.8-0.3,1.7-0.6,2.5-0.8
			c1.4-0.4,2.7-0.7,4.1-1.1c0.2-0.1,0.4-0.3,0.6-0.5c-0.3-0.2-0.5-0.4-0.6-0.4c-1.5-0.3-2.9-0.5-4.4-0.8c-0.6-0.1-1.1,0.2-1.7,0.5
			c-1.1,0.8-1.2,0.7-1.9-0.5C417.8,236.9,417.5,237.1,417.1,237.3z"/>
	</g>
</g>
</svg>
