<?xml version="1.0" encoding="utf-8"?>
<!-- Generator: Adobe Illustrator 19.2.1, SVG Export Plug-In . SVG Version: 6.00 Build 0)  -->
<svg version="1.1" id="Layer_1" xmlns="http://www.w3.org/2000/svg" xmlns:xlink="http://www.w3.org/1999/xlink" x="0px" y="0px"
	 viewBox="0 0 720 1080" style="enable-background:new 0 0 720 1080;" xml:space="preserve">
<g>
	<path d="M574.1,318.8c2.8,2.8,6.5,4.2,10.1,4.2c3.7,0,7.3-1.4,10.1-4.2c5.6-5.6,5.6-14.6,0-20.2l-229-229c-5.6-5.6-14.6-5.6-20.2,0
		c-5.6,5.6-5.6,14.6,0,20.2L574.1,318.8z"/>
	<path d="M631.3,261.6c2.8,2.8,6.5,4.2,10.1,4.2c3.7,0,7.3-1.4,10.1-4.2c5.6-5.6,5.6-14.6,0-20.2l-229-229c-5.6-5.6-14.6-5.6-20.2,0
		c-5.6,5.6-5.6,14.6,0,20.2L631.3,261.6z"/>
	<path d="M143.7,758.1c-5.6-5.6-14.6-5.6-20.2,0c-5.6,5.6-5.6,14.6,0,20.2l229,229c2.8,2.8,6.5,4.2,10.1,4.2c3.7,0,7.3-1.4,10.1-4.2
		c5.6-5.6,5.6-14.6,0-20.2L143.7,758.1z"/>
	<path d="M86.5,818.1c-5.6-5.6-14.6-5.6-20.2,0c-5.6,5.6-5.6,14.6,0,20.2l229,229c2.8,2.8,6.5,4.2,10.1,4.2s7.3-1.4,10.1-4.2
		c5.6-5.6,5.6-14.6,0-20.2L86.5,818.1z"/>
	<path d="M661.6,699.8c-5.6-5.6-14.6-5.6-20.2,0L420.6,920.6l-37-37l220.8-220.8c5.6-5.6,5.6-14.6,0-20.2c-5.6-5.6-14.6-5.6-20.2,0
		L363.4,863.4L325,825l219.4-219.4c4.2-4.2,5.3-10.5,3.1-15.7c-0.6-2.6-1.8-5.1-3.9-7.2L323.5,362.7l88.6-88.6l104.8,104.8
		c2.8,2.8,6.5,4.2,10.1,4.2c3.7,0,7.3-1.4,10.1-4.2c5.6-5.6,5.6-14.6,0-20.2L308.2,129.7c-0.5-0.7-1-1.4-1.6-2
		c-5.6-5.6-14.6-5.6-20.2,0l-229,229c-5.6,5.6-5.6,14.6,0,20.2c2.8,2.8,6.5,4.2,10.1,4.2c3.7,0,7.3-1.4,10.1-4.2l218.8-218.8
		l38.4,38.4L114.5,416.9c-5.6,5.6-5.6,14.6,0,20.2c2.8,2.8,6.5,4.2,10.1,4.2s7.3-1.4,10.1-4.2l220.2-220.2l37,37L171.7,474
		c-5.6,5.6-5.6,14.6,0,20.2c0.3,0.3,0.7,0.7,1.1,1c0.4,0.6,0.9,1.1,1.4,1.6l219.2,219.2l-88.6,88.6L200.9,700.9
		c-5.6-5.6-14.6-5.6-20.2,0c-5.6,5.6-5.6,14.6,0,20.2l229,229c2.8,2.8,6.5,4.2,10.1,4.2c2.3,0,4.7-0.6,6.8-1.7
		c2.2-0.7,4.3-1.9,6-3.6l229-229C667.2,714.4,667.2,705.3,661.6,699.8z M515,594.6l-39.8,39.8L263.5,422.8l39.8-39.8L515,594.6z
		 M202,484.2l41.3-41.3l211.7,211.7l-41.3,41.3L202,484.2z"/>
</g>
</svg>
